<svg xmlns="http://www.w3.org/2000/svg" xmlns:xlink="http://www.w3.org/1999/xlink" width="2000" zoomAndPan="magnify" viewBox="0 0 1500 525.000007" height="700" preserveAspectRatio="xMidYMid meet" version="1.0"><defs><g/></defs><g fill="#cc0000" fill-opacity="1"><g transform="translate(39.037119, 301.078784)"><g><path d="M 98.625 -121.859375 C 111.550781 -121.859375 121.519531 -119.050781 128.53125 -113.4375 C 135.550781 -107.832031 139.0625 -100.394531 139.0625 -91.125 C 139.0625 -87.457031 138.507812 -83.613281 137.40625 -79.59375 C 133.988281 -67.394531 127.25 -58.367188 117.1875 -52.515625 C 107.125 -46.660156 94.410156 -43.734375 79.046875 -43.734375 L 60.203125 -43.734375 L 53.96875 -21.59375 C 53.726562 -20.863281 53.609375 -19.882812 53.609375 -18.65625 C 53.609375 -16.945312 54.003906 -15.546875 54.796875 -14.453125 C 55.585938 -13.359375 56.773438 -12.078125 58.359375 -10.609375 C 59.703125 -9.390625 60.617188 -8.472656 61.109375 -7.859375 C 61.597656 -7.253906 61.84375 -6.523438 61.84375 -5.671875 C 61.84375 -3.597656 60.863281 -2.132812 58.90625 -1.28125 C 56.957031 -0.425781 54.09375 0 50.3125 0 L 4.390625 0 C 1.222656 0 -1.148438 -0.578125 -2.734375 -1.734375 C -4.328125 -2.890625 -4.878906 -4.507812 -4.390625 -6.59375 C -4.148438 -7.6875 -3.691406 -8.566406 -3.015625 -9.234375 C -2.347656 -9.910156 -1.34375 -10.675781 0 -11.53125 C 2.070312 -12.75 3.71875 -14.023438 4.9375 -15.359375 C 6.15625 -16.703125 7.132812 -18.78125 7.875 -21.59375 L 30.1875 -100.453125 C 30.675781 -102.035156 30.921875 -103.5625 30.921875 -105.03125 C 30.921875 -106.363281 30.707031 -107.488281 30.28125 -108.40625 C 29.851562 -109.320312 29.273438 -110.390625 28.546875 -111.609375 C 27.441406 -113.191406 26.890625 -114.472656 26.890625 -115.453125 C 26.890625 -115.816406 27.015625 -116.488281 27.265625 -117.46875 C 27.753906 -119.050781 28.820312 -120.175781 30.46875 -120.84375 C 32.113281 -121.519531 34.644531 -121.859375 38.0625 -121.859375 Z M 93.859375 -82.890625 C 95.203125 -87.398438 95.875 -91.363281 95.875 -94.78125 C 95.875 -101.851562 92.582031 -105.390625 86 -105.390625 L 77.765625 -105.390625 L 64.765625 -60.203125 L 72.828125 -60.203125 C 77.941406 -60.203125 82.113281 -61.816406 85.34375 -65.046875 C 88.582031 -68.273438 91.421875 -74.222656 93.859375 -82.890625 Z M 93.859375 -82.890625 "/></g></g></g><g fill="#cc0000" fill-opacity="1"><g transform="translate(167.655508, 301.078784)"><g><path d="M 48.125 -96.796875 C 55.195312 -96.796875 60.378906 -95.453125 63.671875 -92.765625 C 66.960938 -90.078125 68.609375 -86.414062 68.609375 -81.78125 C 68.609375 -78.976562 68.179688 -76.296875 67.328125 -73.734375 L 50.5 -19.03125 C 50.132812 -17.5625 49.953125 -16.28125 49.953125 -15.1875 C 49.953125 -13.601562 50.253906 -12.351562 50.859375 -11.4375 C 51.472656 -10.519531 52.328125 -9.632812 53.421875 -8.78125 C 54.273438 -7.925781 54.882812 -7.222656 55.25 -6.671875 C 55.613281 -6.128906 55.675781 -5.429688 55.4375 -4.578125 C 54.820312 -2.992188 53.597656 -1.832031 51.765625 -1.09375 C 49.941406 -0.363281 47.140625 0 43.359375 0 L 1.640625 0 C -1.523438 0 -3.835938 -0.515625 -5.296875 -1.546875 C -6.765625 -2.585938 -7.253906 -3.960938 -6.765625 -5.671875 C -6.285156 -7.140625 -5.003906 -8.421875 -2.921875 -9.515625 C -1.097656 -10.492188 0.421875 -11.648438 1.640625 -12.984375 C 2.859375 -14.328125 3.894531 -16.460938 4.75 -19.390625 L 20.671875 -72.265625 C 21.035156 -73.367188 21.21875 -74.285156 21.21875 -75.015625 C 21.21875 -76.359375 20.910156 -77.425781 20.296875 -78.21875 C 19.691406 -79.007812 18.78125 -79.832031 17.5625 -80.6875 C 16.34375 -81.664062 15.488281 -82.519531 15 -83.25 C 14.507812 -83.976562 14.445312 -84.953125 14.8125 -86.171875 C 15.550781 -88.984375 19.394531 -91.457031 26.34375 -93.59375 C 33.300781 -95.726562 40.5625 -96.796875 48.125 -96.796875 Z M 60.375 -137.234375 C 65.125 -137.234375 69.082031 -135.675781 72.25 -132.5625 C 75.425781 -129.445312 77.015625 -125.632812 77.015625 -121.125 C 77.015625 -117.957031 76.191406 -114.847656 74.546875 -111.796875 C 72.898438 -108.742188 70.582031 -106.269531 67.59375 -104.375 C 64.601562 -102.488281 61.28125 -101.546875 57.625 -101.546875 C 52.988281 -101.546875 49.113281 -103.097656 46 -106.203125 C 42.894531 -109.316406 41.28125 -113.191406 41.15625 -117.828125 C 41.15625 -120.878906 41.945312 -123.898438 43.53125 -126.890625 C 45.125 -129.878906 47.382812 -132.347656 50.3125 -134.296875 C 53.238281 -136.253906 56.59375 -137.234375 60.375 -137.234375 Z M 60.375 -137.234375 "/></g></g></g><g fill="#cc0000" fill-opacity="1"><g transform="translate(234.61746, 301.078784)"><g><path d="M 70.8125 -96.796875 C 87.394531 -96.796875 99.617188 -93.4375 107.484375 -86.71875 C 115.359375 -80.007812 119.296875 -71.226562 119.296875 -60.375 C 119.296875 -56.71875 118.804688 -52.632812 117.828125 -48.125 C 115.515625 -38.125 111.1875 -29.367188 104.84375 -21.859375 C 98.5 -14.359375 90.722656 -8.566406 81.515625 -4.484375 C 72.304688 -0.398438 62.332031 1.640625 51.59375 1.640625 C 34.644531 1.640625 22.113281 -1.738281 14 -8.5 C 5.882812 -15.269531 1.828125 -24.269531 1.828125 -35.5 C 1.828125 -39.28125 2.316406 -43.488281 3.296875 -48.125 C 5.609375 -57.632812 10.023438 -66.078125 16.546875 -73.453125 C 23.078125 -80.835938 31.066406 -86.570312 40.515625 -90.65625 C 49.972656 -94.75 60.070312 -96.796875 70.8125 -96.796875 Z M 70.265625 -80.5 C 67.703125 -80.5 64.984375 -78.210938 62.109375 -73.640625 C 59.242188 -69.066406 55.863281 -60.4375 51.96875 -47.75 C 48.0625 -35.0625 46.109375 -26.160156 46.109375 -21.046875 C 46.109375 -18.359375 46.535156 -16.554688 47.390625 -15.640625 C 48.242188 -14.722656 49.398438 -14.265625 50.859375 -14.265625 C 53.421875 -14.023438 56.070312 -16.222656 58.8125 -20.859375 C 61.5625 -25.492188 65.007812 -34.519531 69.15625 -47.9375 C 72.9375 -59.769531 74.828125 -68.367188 74.828125 -73.734375 C 74.828125 -76.296875 74.429688 -78.0625 73.640625 -79.03125 C 72.847656 -80.007812 71.722656 -80.5 70.265625 -80.5 Z M 70.265625 -80.5 "/></g></g></g><g fill="#cc0000" fill-opacity="1"><g transform="translate(354.636727, 301.078784)"><g><path d="M 113.25 -25.25 C 113.007812 -24.757812 112.890625 -24.023438 112.890625 -23.046875 C 112.890625 -22.191406 113.101562 -21.519531 113.53125 -21.03125 C 113.957031 -20.550781 114.535156 -20.3125 115.265625 -20.3125 C 116.734375 -20.3125 117.984375 -20.953125 119.015625 -22.234375 C 120.054688 -23.515625 120.757812 -24.15625 121.125 -24.15625 C 121.738281 -24.15625 122.226562 -23.753906 122.59375 -22.953125 C 122.957031 -22.160156 123.140625 -21.21875 123.140625 -20.125 C 123.265625 -16.59375 122.101562 -13.144531 119.65625 -9.78125 C 117.21875 -6.425781 113.648438 -3.679688 108.953125 -1.546875 C 104.253906 0.578125 98.613281 1.640625 92.03125 1.640625 C 83.976562 1.640625 77.570312 -0.21875 72.8125 -3.9375 C 68.0625 -7.65625 65.625 -12.625 65.5 -18.84375 C 65.5 -23.351562 66.597656 -28.414062 68.796875 -34.03125 L 78.859375 -60.375 C 79.472656 -61.96875 79.78125 -63.25 79.78125 -64.21875 C 79.78125 -65.800781 79.257812 -67.050781 78.21875 -67.96875 C 77.175781 -68.882812 75.925781 -69.34375 74.46875 -69.34375 C 71.78125 -69.34375 69.21875 -68.09375 66.78125 -65.59375 C 64.34375 -63.09375 62.578125 -60.015625 61.484375 -56.359375 L 50.140625 -19.03125 C 49.648438 -17.6875 49.40625 -16.40625 49.40625 -15.1875 C 49.40625 -13.71875 49.707031 -12.523438 50.3125 -11.609375 C 50.925781 -10.703125 51.78125 -9.757812 52.875 -8.78125 C 53.726562 -8.050781 54.335938 -7.378906 54.703125 -6.765625 C 55.066406 -6.160156 55.128906 -5.429688 54.890625 -4.578125 C 54.398438 -2.992188 53.238281 -1.832031 51.40625 -1.09375 C 49.582031 -0.363281 46.71875 0 42.8125 0 L 1.09375 0 C -2.070312 0 -4.359375 -0.515625 -5.765625 -1.546875 C -7.171875 -2.585938 -7.6875 -3.960938 -7.3125 -5.671875 C -6.832031 -7.140625 -5.550781 -8.421875 -3.46875 -9.515625 C -1.644531 -10.492188 -0.125 -11.648438 1.09375 -12.984375 C 2.3125 -14.328125 3.347656 -16.460938 4.203125 -19.390625 L 20.5 -72.265625 C 20.738281 -72.878906 20.859375 -73.734375 20.859375 -74.828125 C 20.859375 -76.171875 20.582031 -77.207031 20.03125 -77.9375 C 19.488281 -78.675781 18.601562 -79.59375 17.375 -80.6875 C 16.15625 -81.664062 15.300781 -82.519531 14.8125 -83.25 C 14.332031 -83.976562 14.273438 -84.953125 14.640625 -86.171875 C 15.367188 -88.984375 19.207031 -91.457031 26.15625 -93.59375 C 33.113281 -95.726562 40.375 -96.796875 47.9375 -96.796875 C 54.039062 -96.796875 58.859375 -95.117188 62.390625 -91.765625 C 65.929688 -88.410156 67.519531 -83.742188 67.15625 -77.765625 C 72.15625 -84.960938 77.457031 -89.929688 83.0625 -92.671875 C 88.675781 -95.421875 94.773438 -96.796875 101.359375 -96.796875 C 108.804688 -96.796875 114.816406 -94.535156 119.390625 -90.015625 C 123.960938 -85.503906 126.25 -79.648438 126.25 -72.453125 C 126.25 -68.671875 125.640625 -64.953125 124.421875 -61.296875 Z M 113.25 -25.25 "/></g></g></g><g fill="#cc0000" fill-opacity="1"><g transform="translate(485.633358, 301.078784)"><g><path d="M 62.03125 -97.703125 C 77.519531 -97.703125 88.738281 -95.234375 95.6875 -90.296875 C 102.644531 -85.359375 106.125 -79.046875 106.125 -71.359375 C 106.125 -69.035156 105.878906 -66.898438 105.390625 -64.953125 C 103.554688 -56.898438 98.460938 -51.132812 90.109375 -47.65625 C 81.753906 -44.1875 71.90625 -42.453125 60.5625 -42.453125 C 54.832031 -42.453125 49.46875 -42.816406 44.46875 -43.546875 C 44.34375 -37.203125 46.046875 -32.75 49.578125 -30.1875 C 53.117188 -27.625 58.0625 -26.34375 64.40625 -26.34375 C 67.332031 -26.34375 70.132812 -26.675781 72.8125 -27.34375 C 75.5 -28.019531 78.914062 -29.03125 83.0625 -30.375 C 86.476562 -31.59375 88.796875 -32.203125 90.015625 -32.203125 C 91.359375 -32.203125 92.03125 -31.410156 92.03125 -29.828125 C 92.15625 -25.554688 90.570312 -21.070312 87.28125 -16.375 C 83.988281 -11.675781 79.109375 -7.679688 72.640625 -4.390625 C 66.171875 -1.097656 58.363281 0.546875 49.21875 0.546875 C 35.675781 0.546875 24.570312 -2.863281 15.90625 -9.6875 C 7.25 -16.519531 2.921875 -26.460938 2.921875 -39.515625 C 2.921875 -43.179688 3.410156 -47.453125 4.390625 -52.328125 C 7.441406 -67.328125 14.117188 -78.640625 24.421875 -86.265625 C 34.734375 -93.890625 47.269531 -97.703125 62.03125 -97.703125 Z M 45.75 -54.53125 C 46.226562 -54.40625 46.894531 -54.34375 47.75 -54.34375 C 52.875 -54.34375 56.773438 -56.71875 59.453125 -61.46875 C 62.140625 -66.226562 63.425781 -71.535156 63.3125 -77.390625 C 63.1875 -80.804688 62.207031 -82.515625 60.375 -82.515625 C 59.03125 -82.515625 57.441406 -81.445312 55.609375 -79.3125 C 53.785156 -77.175781 51.988281 -73.972656 50.21875 -69.703125 C 48.457031 -65.441406 46.96875 -60.382812 45.75 -54.53125 Z M 45.75 -54.53125 "/></g></g></g><g fill="#cc0000" fill-opacity="1"><g transform="translate(588.088822, 301.078784)"><g><path d="M 62.03125 -97.703125 C 77.519531 -97.703125 88.738281 -95.234375 95.6875 -90.296875 C 102.644531 -85.359375 106.125 -79.046875 106.125 -71.359375 C 106.125 -69.035156 105.878906 -66.898438 105.390625 -64.953125 C 103.554688 -56.898438 98.460938 -51.132812 90.109375 -47.65625 C 81.753906 -44.1875 71.90625 -42.453125 60.5625 -42.453125 C 54.832031 -42.453125 49.46875 -42.816406 44.46875 -43.546875 C 44.34375 -37.203125 46.046875 -32.75 49.578125 -30.1875 C 53.117188 -27.625 58.0625 -26.34375 64.40625 -26.34375 C 67.332031 -26.34375 70.132812 -26.675781 72.8125 -27.34375 C 75.5 -28.019531 78.914062 -29.03125 83.0625 -30.375 C 86.476562 -31.59375 88.796875 -32.203125 90.015625 -32.203125 C 91.359375 -32.203125 92.03125 -31.410156 92.03125 -29.828125 C 92.15625 -25.554688 90.570312 -21.070312 87.28125 -16.375 C 83.988281 -11.675781 79.109375 -7.679688 72.640625 -4.390625 C 66.171875 -1.097656 58.363281 0.546875 49.21875 0.546875 C 35.675781 0.546875 24.570312 -2.863281 15.90625 -9.6875 C 7.25 -16.519531 2.921875 -26.460938 2.921875 -39.515625 C 2.921875 -43.179688 3.410156 -47.453125 4.390625 -52.328125 C 7.441406 -67.328125 14.117188 -78.640625 24.421875 -86.265625 C 34.734375 -93.890625 47.269531 -97.703125 62.03125 -97.703125 Z M 45.75 -54.53125 C 46.226562 -54.40625 46.894531 -54.34375 47.75 -54.34375 C 52.875 -54.34375 56.773438 -56.71875 59.453125 -61.46875 C 62.140625 -66.226562 63.425781 -71.535156 63.3125 -77.390625 C 63.1875 -80.804688 62.207031 -82.515625 60.375 -82.515625 C 59.03125 -82.515625 57.441406 -81.445312 55.609375 -79.3125 C 53.785156 -77.175781 51.988281 -73.972656 50.21875 -69.703125 C 48.457031 -65.441406 46.96875 -60.382812 45.75 -54.53125 Z M 45.75 -54.53125 "/></g></g></g><g fill="#cc0000" fill-opacity="1"><g transform="translate(690.544285, 301.078784)"><g><path d="M 89.84375 -96.796875 C 96.664062 -96.796875 102.117188 -94.71875 106.203125 -90.5625 C 110.296875 -86.414062 112.34375 -81.296875 112.34375 -75.203125 C 112.34375 -72.878906 112.097656 -70.742188 111.609375 -68.796875 C 110.390625 -63.796875 108.070312 -59.953125 104.65625 -57.265625 C 101.238281 -54.585938 97.15625 -53.25 92.40625 -53.25 C 87.769531 -53.25 84.257812 -54.34375 81.875 -56.53125 C 79.5 -58.726562 77.394531 -61.65625 75.5625 -65.3125 C 74.59375 -67.394531 73.679688 -68.921875 72.828125 -69.890625 C 71.972656 -70.867188 70.992188 -71.359375 69.890625 -71.359375 C 68.671875 -71.359375 67.601562 -70.867188 66.6875 -69.890625 C 65.769531 -68.921875 64.945312 -67.210938 64.21875 -64.765625 L 50.140625 -19.03125 C 49.890625 -18.414062 49.765625 -17.5 49.765625 -16.28125 C 49.765625 -14.695312 50.222656 -13.382812 51.140625 -12.34375 C 52.054688 -11.3125 53.304688 -10.304688 54.890625 -9.328125 C 56.359375 -8.359375 57.332031 -7.566406 57.8125 -6.953125 C 58.300781 -6.335938 58.484375 -5.546875 58.359375 -4.578125 C 58.117188 -2.992188 57.234375 -1.832031 55.703125 -1.09375 C 54.179688 -0.363281 51.59375 0 47.9375 0 L 1.09375 0 C -2.070312 0 -4.359375 -0.515625 -5.765625 -1.546875 C -7.171875 -2.585938 -7.6875 -3.960938 -7.3125 -5.671875 C -6.832031 -7.140625 -5.550781 -8.421875 -3.46875 -9.515625 C -1.644531 -10.492188 -0.125 -11.648438 1.09375 -12.984375 C 2.3125 -14.328125 3.347656 -16.460938 4.203125 -19.390625 L 20.5 -72.265625 C 20.738281 -72.878906 20.859375 -73.734375 20.859375 -74.828125 C 20.859375 -76.171875 20.582031 -77.207031 20.03125 -77.9375 C 19.488281 -78.675781 18.601562 -79.59375 17.375 -80.6875 C 16.15625 -81.664062 15.300781 -82.519531 14.8125 -83.25 C 14.332031 -83.976562 14.273438 -84.953125 14.640625 -86.171875 C 15.367188 -88.984375 19.207031 -91.457031 26.15625 -93.59375 C 33.113281 -95.726562 40.375 -96.796875 47.9375 -96.796875 C 52.9375 -96.796875 57.082031 -95.664062 60.375 -93.40625 C 63.664062 -91.144531 65.800781 -87.941406 66.78125 -83.796875 C 72.632812 -92.460938 80.320312 -96.796875 89.84375 -96.796875 Z M 89.84375 -96.796875 "/></g></g></g><g fill="#cc0000" fill-opacity="1"><g transform="translate(796.475885, 301.078784)"><g/></g></g><g fill="#cc0000" fill-opacity="1"><g transform="translate(833.067106, 301.078784)"><g><path d="M 63.671875 1.09375 C 53.421875 1.09375 44.207031 -0.796875 36.03125 -4.578125 C 27.863281 -8.359375 21.367188 -13.9375 16.546875 -21.3125 C 11.734375 -28.695312 9.328125 -37.632812 9.328125 -48.125 C 9.328125 -55.4375 10.609375 -63.363281 13.171875 -71.90625 C 18.785156 -90.207031 27.265625 -103.410156 38.609375 -111.515625 C 49.953125 -119.628906 62.085938 -123.6875 75.015625 -123.6875 C 81.972656 -123.6875 88.132812 -122.648438 93.5 -120.578125 C 98.863281 -118.503906 103.800781 -115.515625 108.3125 -111.609375 L 113.25 -115.453125 C 116.550781 -118.015625 119.328125 -119.78125 121.578125 -120.75 C 123.835938 -121.726562 126.367188 -122.21875 129.171875 -122.21875 C 132.222656 -122.21875 134.660156 -121.546875 136.484375 -120.203125 C 138.316406 -118.867188 139.234375 -116.921875 139.234375 -114.359375 C 139.234375 -113.015625 138.988281 -111.671875 138.5 -110.328125 L 128.265625 -81.78125 C 127.160156 -78.488281 125.847656 -76.171875 124.328125 -74.828125 C 122.804688 -73.492188 120.519531 -72.828125 117.46875 -72.828125 C 114.289062 -72.828125 111.695312 -73.953125 109.6875 -76.203125 C 107.675781 -78.460938 105.390625 -82.335938 102.828125 -87.828125 C 99.898438 -93.554688 97.519531 -97.332031 95.6875 -99.15625 C 93.863281 -100.988281 91.179688 -101.90625 87.640625 -101.90625 C 82.640625 -101.90625 77.820312 -98.828125 73.1875 -92.671875 C 68.550781 -86.515625 64.34375 -77.273438 60.5625 -64.953125 C 57.394531 -54.585938 55.8125 -45.925781 55.8125 -38.96875 C 55.8125 -32.875 56.96875 -28.332031 59.28125 -25.34375 C 61.601562 -22.351562 64.710938 -20.859375 68.609375 -20.859375 C 74.347656 -20.859375 79.078125 -22.140625 82.796875 -24.703125 C 86.515625 -27.265625 90.328125 -30.738281 94.234375 -35.125 C 96.671875 -37.8125 98.648438 -39.796875 100.171875 -41.078125 C 101.703125 -42.359375 103.320312 -43 105.03125 -43 C 107.21875 -43 109.53125 -41.898438 111.96875 -39.703125 C 114.414062 -37.503906 115.578125 -35.3125 115.453125 -33.125 C 115.578125 -30.4375 113.410156 -26.285156 108.953125 -20.671875 C 104.503906 -15.066406 98.34375 -10.035156 90.46875 -5.578125 C 82.601562 -1.128906 73.671875 1.09375 63.671875 1.09375 Z M 63.671875 1.09375 "/></g></g></g><g fill="#cc0000" fill-opacity="1"><g transform="translate(959.672811, 301.078784)"><g><path d="M 62.03125 -97.703125 C 77.519531 -97.703125 88.738281 -95.234375 95.6875 -90.296875 C 102.644531 -85.359375 106.125 -79.046875 106.125 -71.359375 C 106.125 -69.035156 105.878906 -66.898438 105.390625 -64.953125 C 103.554688 -56.898438 98.460938 -51.132812 90.109375 -47.65625 C 81.753906 -44.1875 71.90625 -42.453125 60.5625 -42.453125 C 54.832031 -42.453125 49.46875 -42.816406 44.46875 -43.546875 C 44.34375 -37.203125 46.046875 -32.75 49.578125 -30.1875 C 53.117188 -27.625 58.0625 -26.34375 64.40625 -26.34375 C 67.332031 -26.34375 70.132812 -26.675781 72.8125 -27.34375 C 75.5 -28.019531 78.914062 -29.03125 83.0625 -30.375 C 86.476562 -31.59375 88.796875 -32.203125 90.015625 -32.203125 C 91.359375 -32.203125 92.03125 -31.410156 92.03125 -29.828125 C 92.15625 -25.554688 90.570312 -21.070312 87.28125 -16.375 C 83.988281 -11.675781 79.109375 -7.679688 72.640625 -4.390625 C 66.171875 -1.097656 58.363281 0.546875 49.21875 0.546875 C 35.675781 0.546875 24.570312 -2.863281 15.90625 -9.6875 C 7.25 -16.519531 2.921875 -26.460938 2.921875 -39.515625 C 2.921875 -43.179688 3.410156 -47.453125 4.390625 -52.328125 C 7.441406 -67.328125 14.117188 -78.640625 24.421875 -86.265625 C 34.734375 -93.890625 47.269531 -97.703125 62.03125 -97.703125 Z M 45.75 -54.53125 C 46.226562 -54.40625 46.894531 -54.34375 47.75 -54.34375 C 52.875 -54.34375 56.773438 -56.71875 59.453125 -61.46875 C 62.140625 -66.226562 63.425781 -71.535156 63.3125 -77.390625 C 63.1875 -80.804688 62.207031 -82.515625 60.375 -82.515625 C 59.03125 -82.515625 57.441406 -81.445312 55.609375 -79.3125 C 53.785156 -77.175781 51.988281 -73.972656 50.21875 -69.703125 C 48.457031 -65.441406 46.96875 -60.382812 45.75 -54.53125 Z M 45.75 -54.53125 "/></g></g></g><g fill="#cc0000" fill-opacity="1"><g transform="translate(1062.128229, 301.078784)"><g><path d="M 113.25 -25.25 C 113.007812 -24.757812 112.890625 -24.023438 112.890625 -23.046875 C 112.890625 -22.191406 113.101562 -21.519531 113.53125 -21.03125 C 113.957031 -20.550781 114.535156 -20.3125 115.265625 -20.3125 C 116.734375 -20.3125 117.984375 -20.953125 119.015625 -22.234375 C 120.054688 -23.515625 120.757812 -24.15625 121.125 -24.15625 C 121.738281 -24.15625 122.226562 -23.753906 122.59375 -22.953125 C 122.957031 -22.160156 123.140625 -21.21875 123.140625 -20.125 C 123.265625 -16.59375 122.101562 -13.144531 119.65625 -9.78125 C 117.21875 -6.425781 113.648438 -3.679688 108.953125 -1.546875 C 104.253906 0.578125 98.613281 1.640625 92.03125 1.640625 C 83.976562 1.640625 77.570312 -0.21875 72.8125 -3.9375 C 68.0625 -7.65625 65.625 -12.625 65.5 -18.84375 C 65.5 -23.351562 66.597656 -28.414062 68.796875 -34.03125 L 78.859375 -60.375 C 79.472656 -61.96875 79.78125 -63.25 79.78125 -64.21875 C 79.78125 -65.800781 79.257812 -67.050781 78.21875 -67.96875 C 77.175781 -68.882812 75.925781 -69.34375 74.46875 -69.34375 C 71.78125 -69.34375 69.21875 -68.09375 66.78125 -65.59375 C 64.34375 -63.09375 62.578125 -60.015625 61.484375 -56.359375 L 50.140625 -19.03125 C 49.648438 -17.6875 49.40625 -16.40625 49.40625 -15.1875 C 49.40625 -13.71875 49.707031 -12.523438 50.3125 -11.609375 C 50.925781 -10.703125 51.78125 -9.757812 52.875 -8.78125 C 53.726562 -8.050781 54.335938 -7.378906 54.703125 -6.765625 C 55.066406 -6.160156 55.128906 -5.429688 54.890625 -4.578125 C 54.398438 -2.992188 53.238281 -1.832031 51.40625 -1.09375 C 49.582031 -0.363281 46.71875 0 42.8125 0 L 1.09375 0 C -2.070312 0 -4.359375 -0.515625 -5.765625 -1.546875 C -7.171875 -2.585938 -7.6875 -3.960938 -7.3125 -5.671875 C -6.832031 -7.140625 -5.550781 -8.421875 -3.46875 -9.515625 C -1.644531 -10.492188 -0.125 -11.648438 1.09375 -12.984375 C 2.3125 -14.328125 3.347656 -16.460938 4.203125 -19.390625 L 20.5 -72.265625 C 20.738281 -72.878906 20.859375 -73.734375 20.859375 -74.828125 C 20.859375 -76.171875 20.582031 -77.207031 20.03125 -77.9375 C 19.488281 -78.675781 18.601562 -79.59375 17.375 -80.6875 C 16.15625 -81.664062 15.300781 -82.519531 14.8125 -83.25 C 14.332031 -83.976562 14.273438 -84.953125 14.640625 -86.171875 C 15.367188 -88.984375 19.207031 -91.457031 26.15625 -93.59375 C 33.113281 -95.726562 40.375 -96.796875 47.9375 -96.796875 C 54.039062 -96.796875 58.859375 -95.117188 62.390625 -91.765625 C 65.929688 -88.410156 67.519531 -83.742188 67.15625 -77.765625 C 72.15625 -84.960938 77.457031 -89.929688 83.0625 -92.671875 C 88.675781 -95.421875 94.773438 -96.796875 101.359375 -96.796875 C 108.804688 -96.796875 114.816406 -94.535156 119.390625 -90.015625 C 123.960938 -85.503906 126.25 -79.648438 126.25 -72.453125 C 126.25 -68.671875 125.640625 -64.953125 124.421875 -61.296875 Z M 113.25 -25.25 "/></g></g></g><g fill="#cc0000" fill-opacity="1"><g transform="translate(1193.12486, 301.078784)"><g><path d="M 81.78125 -94.40625 C 84.101562 -94.40625 85.90625 -93.914062 87.1875 -92.9375 C 88.46875 -91.96875 89.109375 -90.628906 89.109375 -88.921875 C 89.109375 -88.429688 88.984375 -87.578125 88.734375 -86.359375 C 87.148438 -80.992188 83.492188 -78.3125 77.765625 -78.3125 L 67.15625 -78.3125 L 53.421875 -33.125 C 52.816406 -31.289062 52.515625 -29.398438 52.515625 -27.453125 C 52.515625 -25.253906 53.125 -23.726562 54.34375 -22.875 C 55.5625 -22.019531 57.269531 -21.59375 59.46875 -21.59375 C 61.414062 -21.59375 63.851562 -21.835938 66.78125 -22.328125 C 68.25 -22.691406 69.53125 -22.875 70.625 -22.875 C 71.476562 -22.875 72.117188 -22.597656 72.546875 -22.046875 C 72.972656 -21.492188 73.1875 -20.789062 73.1875 -19.9375 C 73.3125 -17.5 71.507812 -14.539062 67.78125 -11.0625 C 64.0625 -7.59375 59.03125 -4.609375 52.6875 -2.109375 C 46.351562 0.390625 39.34375 1.640625 31.65625 1.640625 C 23.363281 1.640625 16.710938 -0.25 11.703125 -4.03125 C 6.703125 -7.8125 4.203125 -12.992188 4.203125 -19.578125 C 4.203125 -22.628906 4.691406 -25.554688 5.671875 -28.359375 L 17.375 -64.59375 C 17.988281 -66.664062 18.296875 -68.3125 18.296875 -69.53125 C 18.296875 -71.96875 17.71875 -74.039062 16.5625 -75.75 C 15.40625 -77.457031 13.785156 -79.226562 11.703125 -81.0625 C 9.878906 -82.757812 8.597656 -84.1875 7.859375 -85.34375 C 7.128906 -86.507812 6.945312 -87.882812 7.3125 -89.46875 C 7.800781 -91.050781 8.835938 -92.269531 10.421875 -93.125 C 12.015625 -93.976562 14.519531 -94.40625 17.9375 -94.40625 L 28.171875 -94.40625 L 39.703125 -105.9375 C 43.734375 -109.96875 47.425781 -112.773438 50.78125 -114.359375 C 54.132812 -115.941406 58.492188 -116.734375 63.859375 -116.734375 C 71.546875 -116.734375 75.390625 -113.804688 75.390625 -107.953125 C 75.390625 -106.117188 75.144531 -104.410156 74.65625 -102.828125 L 72.09375 -94.40625 Z M 81.78125 -94.40625 "/></g></g></g><g fill="#cc0000" fill-opacity="1"><g transform="translate(1271.796053, 301.078784)"><g><path d="M 62.03125 -97.703125 C 77.519531 -97.703125 88.738281 -95.234375 95.6875 -90.296875 C 102.644531 -85.359375 106.125 -79.046875 106.125 -71.359375 C 106.125 -69.035156 105.878906 -66.898438 105.390625 -64.953125 C 103.554688 -56.898438 98.460938 -51.132812 90.109375 -47.65625 C 81.753906 -44.1875 71.90625 -42.453125 60.5625 -42.453125 C 54.832031 -42.453125 49.46875 -42.816406 44.46875 -43.546875 C 44.34375 -37.203125 46.046875 -32.75 49.578125 -30.1875 C 53.117188 -27.625 58.0625 -26.34375 64.40625 -26.34375 C 67.332031 -26.34375 70.132812 -26.675781 72.8125 -27.34375 C 75.5 -28.019531 78.914062 -29.03125 83.0625 -30.375 C 86.476562 -31.59375 88.796875 -32.203125 90.015625 -32.203125 C 91.359375 -32.203125 92.03125 -31.410156 92.03125 -29.828125 C 92.15625 -25.554688 90.570312 -21.070312 87.28125 -16.375 C 83.988281 -11.675781 79.109375 -7.679688 72.640625 -4.390625 C 66.171875 -1.097656 58.363281 0.546875 49.21875 0.546875 C 35.675781 0.546875 24.570312 -2.863281 15.90625 -9.6875 C 7.25 -16.519531 2.921875 -26.460938 2.921875 -39.515625 C 2.921875 -43.179688 3.410156 -47.453125 4.390625 -52.328125 C 7.441406 -67.328125 14.117188 -78.640625 24.421875 -86.265625 C 34.734375 -93.890625 47.269531 -97.703125 62.03125 -97.703125 Z M 45.75 -54.53125 C 46.226562 -54.40625 46.894531 -54.34375 47.75 -54.34375 C 52.875 -54.34375 56.773438 -56.71875 59.453125 -61.46875 C 62.140625 -66.226562 63.425781 -71.535156 63.3125 -77.390625 C 63.1875 -80.804688 62.207031 -82.515625 60.375 -82.515625 C 59.03125 -82.515625 57.441406 -81.445312 55.609375 -79.3125 C 53.785156 -77.175781 51.988281 -73.972656 50.21875 -69.703125 C 48.457031 -65.441406 46.96875 -60.382812 45.75 -54.53125 Z M 45.75 -54.53125 "/></g></g></g><g fill="#cc0000" fill-opacity="1"><g transform="translate(1374.251471, 301.078784)"><g><path d="M 89.84375 -96.796875 C 96.664062 -96.796875 102.117188 -94.71875 106.203125 -90.5625 C 110.296875 -86.414062 112.34375 -81.296875 112.34375 -75.203125 C 112.34375 -72.878906 112.097656 -70.742188 111.609375 -68.796875 C 110.390625 -63.796875 108.070312 -59.953125 104.65625 -57.265625 C 101.238281 -54.585938 97.15625 -53.25 92.40625 -53.25 C 87.769531 -53.25 84.257812 -54.34375 81.875 -56.53125 C 79.5 -58.726562 77.394531 -61.65625 75.5625 -65.3125 C 74.59375 -67.394531 73.679688 -68.921875 72.828125 -69.890625 C 71.972656 -70.867188 70.992188 -71.359375 69.890625 -71.359375 C 68.671875 -71.359375 67.601562 -70.867188 66.6875 -69.890625 C 65.769531 -68.921875 64.945312 -67.210938 64.21875 -64.765625 L 50.140625 -19.03125 C 49.890625 -18.414062 49.765625 -17.5 49.765625 -16.28125 C 49.765625 -14.695312 50.222656 -13.382812 51.140625 -12.34375 C 52.054688 -11.3125 53.304688 -10.304688 54.890625 -9.328125 C 56.359375 -8.359375 57.332031 -7.566406 57.8125 -6.953125 C 58.300781 -6.335938 58.484375 -5.546875 58.359375 -4.578125 C 58.117188 -2.992188 57.234375 -1.832031 55.703125 -1.09375 C 54.179688 -0.363281 51.59375 0 47.9375 0 L 1.09375 0 C -2.070312 0 -4.359375 -0.515625 -5.765625 -1.546875 C -7.171875 -2.585938 -7.6875 -3.960938 -7.3125 -5.671875 C -6.832031 -7.140625 -5.550781 -8.421875 -3.46875 -9.515625 C -1.644531 -10.492188 -0.125 -11.648438 1.09375 -12.984375 C 2.3125 -14.328125 3.347656 -16.460938 4.203125 -19.390625 L 20.5 -72.265625 C 20.738281 -72.878906 20.859375 -73.734375 20.859375 -74.828125 C 20.859375 -76.171875 20.582031 -77.207031 20.03125 -77.9375 C 19.488281 -78.675781 18.601562 -79.59375 17.375 -80.6875 C 16.15625 -81.664062 15.300781 -82.519531 14.8125 -83.25 C 14.332031 -83.976562 14.273438 -84.953125 14.640625 -86.171875 C 15.367188 -88.984375 19.207031 -91.457031 26.15625 -93.59375 C 33.113281 -95.726562 40.375 -96.796875 47.9375 -96.796875 C 52.9375 -96.796875 57.082031 -95.664062 60.375 -93.40625 C 63.664062 -91.144531 65.800781 -87.941406 66.78125 -83.796875 C 72.632812 -92.460938 80.320312 -96.796875 89.84375 -96.796875 Z M 89.84375 -96.796875 "/></g></g></g></svg>